<?xml version="1.0" encoding="UTF-8" standalone="no"?>
<!DOCTYPE svg PUBLIC "-//W3C//DTD SVG 1.1//EN" "http://www.w3.org/Graphics/SVG/1.1/DTD/svg11.dtd">
<svg width="100%" height="100%" viewBox="0 0 64 65" version="1.1" xmlns="http://www.w3.org/2000/svg" xmlns:xlink="http://www.w3.org/1999/xlink" xml:space="preserve" xmlns:serif="http://www.serif.com/" style="fill-rule:evenodd;clip-rule:evenodd;stroke-linejoin:round;stroke-miterlimit:2;">
    <g transform="matrix(1,0,0,1,0,-80)">
        <g id="Flickr" transform="matrix(1,0,0,1,-114,80.0595)">
            <rect x="114" y="0" width="64" height="64" style="fill:none;"/>
            <path d="M178,12.462C178,5.584 172.416,0 165.538,0L126.462,0C119.584,0 114,5.584 114,12.462L114,51.538C114,58.416 119.584,64 126.462,64L165.538,64C172.416,64 178,58.416 178,51.538L178,12.462ZM174,12.462L174,51.538C174,56.208 170.208,60 165.538,60L126.462,60C121.792,60 118,56.208 118,51.538L118,12.462C118,7.792 121.792,4 126.462,4C126.462,4 165.538,4 165.538,4C170.208,4 174,7.792 174,12.462Z" style="fill:white;"/>
            <g transform="matrix(0.727406,0,0,0.727406,39.7987,8.723)">
                <g transform="matrix(0.840791,0,0,0.840791,130.275,-62.2186)">
                    <circle cx="32" cy="112.06" r="10.919" style="fill:white;"/>
                </g>
                <g transform="matrix(0.840791,0,0,0.840791,107.914,-62.2186)">
                    <circle cx="32" cy="112.06" r="10.919" style="fill:white;"/>
                </g>
            </g>
        </g>
    </g>
</svg>
